<svg width="20" height="20" viewBox="0 0 20 20" fill="none" xmlns="http://www.w3.org/2000/svg">
<path d="M13.0314 2.5H6.96858C4.5046 2.5 2.5 4.5046 2.5 6.96858V13.0314C2.5 15.4954 4.5046 17.5 6.96858 17.5H13.0314C15.4954 17.5 17.5 15.4954 17.5 13.0314V6.96858C17.5 4.5046 15.4954 2.5 13.0314 2.5ZM15.991 13.0314C15.991 14.6659 14.6659 15.991 13.0314 15.991H6.96858C5.33406 15.991 4.009 14.6659 4.009 13.0314V6.96858C4.009 5.33404 5.33406 4.009 6.96858 4.009H13.0314C14.6659 4.009 15.991 5.33404 15.991 6.96858V13.0314Z" fill="#2D3035" stroke="#2D3035" stroke-width="0.2"/>
<path d="M10.0012 6.25024C7.93347 6.25024 6.25122 7.9325 6.25122 10.0002C6.25122 12.068 7.93347 13.7502 10.0012 13.7502C12.069 13.7502 13.7512 12.068 13.7512 10.0002C13.7512 7.93247 12.069 6.25024 10.0012 6.25024ZM10.0012 12.2917C8.73571 12.2917 7.70984 11.2658 7.70984 10.0003C7.70984 8.73475 8.73574 7.70886 10.0012 7.70886C11.2667 7.70886 12.2926 8.73475 12.2926 10.0003C12.2926 11.2657 11.2667 12.2917 10.0012 12.2917Z" fill="#2D3035" stroke="#2D3035" stroke-width="0.2"/>
<path d="M13.7488 7.18799C14.2665 7.18799 14.6863 6.76826 14.6863 6.25049C14.6863 5.73272 14.2665 5.31299 13.7488 5.31299C13.231 5.31299 12.8113 5.73272 12.8113 6.25049C12.8113 6.76826 13.231 7.18799 13.7488 7.18799Z" fill="#2D3035"/>
</svg>
