<svg width="24" height="24" viewBox="0 0 24 24" fill="none" xmlns="http://www.w3.org/2000/svg">
<path d="M6 3.90476C6 2.85279 6.79594 2 7.77778 2H16.2222C17.2041 2 18 2.85279 18 3.90476V20.0952C18 21.1472 17.2041 22 16.2222 22H7.77778C6.79594 22 6 21.1472 6 20.0952V3.90476Z" stroke="#2D3035" stroke-width="2"/>
<path d="M9.55556 2.95238C9.55556 2.4264 9.95352 2 10.4444 2H13.5556C14.0465 2 14.4444 2.4264 14.4444 2.95238C14.4444 3.47837 14.0465 3.90476 13.5556 3.90476H10.4444C9.95352 3.90476 9.55556 3.47837 9.55556 2.95238Z" stroke="#2D3035" stroke-width="2"/>
</svg>
