<svg width="20" height="20" viewBox="0 0 20 20" fill="none" xmlns="http://www.w3.org/2000/svg">
<path d="M14.3851 6.23944L8.38796 11.7647L5.64457 9.03309C5.5566 8.94545 5.45175 8.87553 5.336 8.82732C5.22026 8.7791 5.09589 8.75355 4.97 8.75211C4.84411 8.75067 4.71916 8.77337 4.60228 8.81892C4.4854 8.86446 4.37889 8.93197 4.28882 9.01757C4.19876 9.10317 4.1269 9.2052 4.07736 9.31782C4.02781 9.43045 4.00155 9.55146 4.00007 9.67396C3.99859 9.79647 4.02192 9.91805 4.06872 10.0318C4.11553 10.1455 4.1849 10.2492 4.27287 10.3368L7.68616 13.7202C7.77004 13.8116 7.8735 13.884 7.98924 13.9322C8.10498 13.9805 8.2302 14.0035 8.35605 13.9996C8.60182 13.9931 8.83803 13.9055 9.02595 13.7512L15.693 7.60522C15.8771 7.43942 15.987 7.2099 15.9989 6.96607C16.0108 6.72224 15.9239 6.4836 15.7568 6.30152C15.581 6.12034 15.3397 6.01262 15.0839 6.00104C14.828 5.98946 14.5775 6.07493 14.3851 6.23944Z" fill="#009846"/>
</svg>
