<svg width="20" height="20" viewBox="0 0 20 20" fill="none" xmlns="http://www.w3.org/2000/svg">
<path d="M2.16961 9.19379L11.1046 5.48357C11.9866 5.09709 14.9777 3.86035 14.9777 3.86035C14.9777 3.86035 16.3582 3.31928 16.2432 4.63332C16.2048 5.17439 15.8981 7.06814 15.5913 9.11649L14.6326 15.1842C14.6326 15.1842 14.5559 16.0731 13.904 16.2277C13.2521 16.3823 12.1783 15.6867 11.9866 15.5321C11.8332 15.4161 9.11053 13.677 8.11349 12.8267C7.84506 12.5948 7.53828 12.131 8.15184 11.59C9.53236 10.3146 11.1813 8.73001 12.1783 7.72516C12.6385 7.26138 13.0987 6.17924 11.1813 7.49327L5.77429 11.1648C5.77429 11.1648 5.16073 11.5513 4.0103 11.2035C2.85987 10.8557 1.5177 10.3919 1.5177 10.3919C1.5177 10.3919 0.597359 9.81216 2.16961 9.19379Z" fill="#2D3035"/>
</svg>
