<svg width="20" height="20" viewBox="0 0 20 20" fill="none" xmlns="http://www.w3.org/2000/svg">
<path fill-rule="evenodd" clip-rule="evenodd" d="M19.5411 5.67713C19.6801 5.28681 19.5411 5 18.8794 5H16.6914C16.135 5 15.8786 5.24776 15.7395 5.52097C15.7395 5.52097 14.6268 7.80433 13.0505 9.28753C12.5406 9.71686 12.3087 9.85347 12.0306 9.85347C11.8915 9.85347 11.6902 9.71686 11.6902 9.32657V5.67713C11.6902 5.20875 11.5287 5 11.0651 5H7.62678C7.27911 5 7.07003 5.21739 7.07003 5.42342C7.07003 5.86744 7.85812 5.96984 7.93935 7.21887V9.93157C7.93935 10.5263 7.81177 10.6341 7.5336 10.6341C6.79186 10.6341 4.98756 8.34058 3.91744 5.71615C3.70773 5.20605 3.49738 5 2.93819 5H0.750182C0.125037 5 0 5.24776 0 5.52097C0 6.00888 0.741784 8.42885 3.45387 11.6294C5.26191 13.8152 7.80932 15 10.1274 15C11.5182 15 11.6902 14.7368 11.6902 14.2836V12.6316C11.6902 12.1053 11.822 12.0002 12.2624 12.0002C12.5869 12.0002 13.1433 12.1368 14.4414 13.1907C15.9249 14.4397 16.1695 15 17.004 15H19.192C19.8171 15 20.1297 14.7368 19.9494 14.2175C19.752 13.6999 19.0437 12.949 18.1039 12.0588C17.5939 11.5514 16.8289 11.0049 16.5971 10.7317C16.2726 10.3804 16.3653 10.2243 16.5971 9.91204C16.5971 9.91204 19.2629 6.75048 19.5411 5.67713Z" fill="#2D3035"/>
</svg>
