<svg width="12" height="12" viewBox="0 0 12 12" fill="none" xmlns="http://www.w3.org/2000/svg">
<path d="M3.31412 10.0966L3.49554 10.2037C4.25786 10.6541 5.13185 10.8923 6.02311 10.8928H6.02506C8.76222 10.8928 10.99 8.67547 10.991 5.95031C10.9914 4.62959 10.4754 3.38788 9.5378 2.4536C8.60014 1.5195 7.35348 1.00471 6.02683 1.00416C3.2876 1.00416 1.05987 3.22111 1.05884 5.94627C1.05847 6.88011 1.32088 7.78961 1.81805 8.57643L1.93623 8.76346L1.43443 10.5873L3.31412 10.0966ZM0 12L0.847621 8.91873C0.324799 8.01693 0.0497559 6.99394 0.0501864 5.94599C0.0514609 2.66737 2.73155 0 6.02518 0C7.62339 0.000685832 9.1235 0.619923 10.2516 1.7439C11.3795 2.86786 12.0005 4.36189 12 5.95079C11.9986 9.22924 9.31794 11.8971 6.02518 11.8971C6.02494 11.8971 6.0253 11.8971 6.02518 11.8971H6.02263C5.02269 11.8968 4.04015 11.6471 3.16749 11.1732L0 12Z" fill="white"/>
<path fill-rule="evenodd" clip-rule="evenodd" d="M4.78169 3.8934C4.68887 3.68802 4.59122 3.6839 4.50294 3.68029C4.4307 3.67723 4.34807 3.67743 4.26554 3.67743C4.18291 3.67743 4.0487 3.7083 3.93522 3.83171C3.82163 3.95513 3.5016 4.25347 3.5016 4.86022C3.5016 5.46703 3.94556 6.05336 4.00742 6.13572C4.06938 6.21793 4.86443 7.50293 6.12348 7.99723C7.16995 8.40804 7.3829 8.32634 7.61003 8.30575C7.83716 8.28522 8.34297 8.00751 8.44617 7.71952C8.54942 7.43158 8.54942 7.18475 8.51846 7.1332C8.48751 7.0818 8.40488 7.05094 8.281 6.98931C8.15708 6.92762 7.54806 6.62924 7.43454 6.58808C7.32095 6.54697 7.23836 6.52644 7.15573 6.64991C7.07315 6.77323 6.8359 7.05094 6.7636 7.1332C6.69136 7.21562 6.61906 7.22591 6.49519 7.16422C6.37127 7.10234 5.97228 6.97224 5.49898 6.55214C5.1307 6.22526 4.88209 5.82157 4.80979 5.69809C4.73755 5.57477 4.80208 5.50797 4.86419 5.44648C4.91985 5.39122 4.98811 5.30248 5.05008 5.23051C5.11188 5.15848 5.13251 5.10709 5.1738 5.02482C5.21514 4.94251 5.19447 4.87049 5.16351 4.8088C5.13251 4.74711 4.89177 4.13724 4.78161 3.89336" fill="white"/>
</svg>
